<svg width="20" height="20" viewBox="0 0 20 20" fill="none" xmlns="http://www.w3.org/2000/svg">
<path d="M10 1.66667C14.595 1.66667 18.3333 5.405 18.3333 10C18.3333 14.595 14.595 18.3333 10 18.3333C5.405 18.3333 1.66667 14.595 1.66667 10C1.66667 5.405 5.405 1.66667 10 1.66667ZM10 0C4.4775 0 0 4.4775 0 10C0 15.5225 4.4775 20 10 20C15.5225 20 20 15.5225 20 10C20 4.4775 15.5225 0 10 0ZM14.8733 10.3825C15.0417 10.4142 15.0417 10.66 14.8742 10.6925C13.285 10.9933 9.83667 11.6183 9.41833 11.6183C8.81917 11.6183 8.33417 11.1333 8.33417 10.5342C8.33417 10.1075 8.97583 5.995 9.27167 4.33C9.3 4.17 9.53167 4.17917 9.5575 4.34167L10.3783 9.54L14.8733 10.3825Z" fill="#EBD934"/>
</svg>
